<svg xmlns="http://www.w3.org/2000/svg" enable-background="new 0 0 24 24" viewBox="0 0 24 24"><path fill="#E31837" d="M23.39,6.173l-5.487-5.556c-0.813-0.823-2.132-0.823-2.945,0L8.043,7.62l8.431,8.538l6.916-7.002C24.203,8.332,24.203,6.997,23.39,6.173z M17.923,9.131c-0.406,0.411-0.94,0.616-1.47,0.616c-0.531,0-1.064-0.206-1.47-0.616c-0.405-0.41-0.609-0.951-0.61-1.489c0-0.539,0.204-1.079,0.61-1.489c0.407-0.41,0.938-0.618,1.47-0.618c0.53,0,1.064,0.206,1.47,0.618c0.405,0.409,0.609,0.95,0.609,1.489C18.532,8.18,18.328,8.721,17.923,9.131z"/><path fill="#0078AE" d="M0.61,15.144c-0.813,0.824-0.813,2.159,0,2.982l5.521,5.295c0.806,0.773,2.069,0.77,2.871-0.007l6.952-6.732L7.523,8.145L0.61,15.144z M5.981,18.094c-0.407,0.409-0.939,0.615-1.471,0.615s-1.065-0.206-1.471-0.615c-0.406-0.41-0.608-0.95-0.608-1.488c0-0.539,0.202-1.079,0.608-1.491c0.406-0.41,0.938-0.616,1.47-0.616c0.531,0,1.065,0.206,1.471,0.616c0.406,0.412,0.608,0.951,0.607,1.49C6.589,17.143,6.387,17.684,5.981,18.094z M9.143,15.202c0.406-0.412,0.939-0.617,1.47-0.617c0.532,0,1.065,0.206,1.469,0.617c0.407,0.41,0.61,0.949,0.61,1.489c0,0.538-0.203,1.078-0.61,1.488c-0.405,0.409-0.937,0.616-1.469,0.617c-0.532,0-1.064-0.207-1.47-0.617c-0.406-0.411-0.609-0.951-0.609-1.488C8.533,16.152,8.737,15.612,9.143,15.202z"/></svg>